<mxfile host="Electron" agent="Mozilla/5.0 (X11; Linux x86_64) AppleWebKit/537.36 (KHTML, like Gecko) draw.io/24.7.8 Chrome/128.0.6613.36 Electron/32.0.1 Safari/537.36" version="24.7.8">
  <diagram name="PÃ¡gina-1" id="oE5SToJG6d0fqBrR_LVp">
    <mxGraphModel dx="880" dy="547" grid="1" gridSize="10" guides="1" tooltips="1" connect="1" arrows="1" fold="1" page="1" pageScale="1" pageWidth="1169" pageHeight="827" math="0" shadow="0">
      <root>
        <mxCell id="0" />
        <mxCell id="1" parent="0" />
        <mxCell id="YD6msoa2M3r7hMomgX2S-1" value="&lt;i style=&quot;&quot;&gt;&lt;font style=&quot;font-size: 20px;&quot;&gt;USER&lt;/font&gt;&lt;/i&gt;" style="rounded=0;whiteSpace=wrap;html=1;fillColor=none;" parent="1" vertex="1">
          <mxGeometry x="370" y="118" width="110" height="80" as="geometry" />
        </mxCell>
        <mxCell id="YD6msoa2M3r7hMomgX2S-2" value="&lt;i style=&quot;&quot;&gt;&lt;font style=&quot;font-size: 20px;&quot;&gt;TASK&lt;/font&gt;&lt;/i&gt;" style="rounded=0;whiteSpace=wrap;html=1;fillColor=none;align=center;" parent="1" vertex="1">
          <mxGeometry x="840" y="118" width="110" height="80" as="geometry" />
        </mxCell>
        <mxCell id="YD6msoa2M3r7hMomgX2S-3" value="&lt;i&gt;&lt;font style=&quot;font-size: 16px;&quot;&gt;CREATE&lt;/font&gt;&lt;/i&gt;" style="html=1;whiteSpace=wrap;aspect=fixed;shape=isoRectangle;fillColor=none;" parent="1" vertex="1">
          <mxGeometry x="590" y="118" width="133.34" height="80" as="geometry" />
        </mxCell>
        <mxCell id="YD6msoa2M3r7hMomgX2S-5" value="" style="endArrow=none;html=1;rounded=0;exitX=1;exitY=0.5;exitDx=0;exitDy=0;" parent="1" source="YD6msoa2M3r7hMomgX2S-1" edge="1">
          <mxGeometry width="50" height="50" relative="1" as="geometry">
            <mxPoint x="490" y="158" as="sourcePoint" />
            <mxPoint x="590" y="158" as="targetPoint" />
          </mxGeometry>
        </mxCell>
        <mxCell id="YD6msoa2M3r7hMomgX2S-6" value="" style="endArrow=none;html=1;rounded=0;exitX=1;exitY=0.5;exitDx=0;exitDy=0;entryX=0;entryY=0.5;entryDx=0;entryDy=0;" parent="1" target="YD6msoa2M3r7hMomgX2S-2" edge="1">
          <mxGeometry width="50" height="50" relative="1" as="geometry">
            <mxPoint x="723.34" y="157.5" as="sourcePoint" />
            <mxPoint x="835.34" y="158.5" as="targetPoint" />
          </mxGeometry>
        </mxCell>
        <mxCell id="YD6msoa2M3r7hMomgX2S-23" value="" style="endArrow=none;html=1;rounded=0;entryX=0;entryY=0.75;entryDx=0;entryDy=0;exitX=0.5;exitY=0;exitDx=0;exitDy=0;" parent="1" source="1crDwZA3xUfXSPAo53d7-8" target="YD6msoa2M3r7hMomgX2S-1" edge="1">
          <mxGeometry width="50" height="50" relative="1" as="geometry">
            <mxPoint x="343.83007791635805" y="257.7170760716932" as="sourcePoint" />
            <mxPoint x="330" y="168" as="targetPoint" />
            <Array as="points">
              <mxPoint x="350" y="210" />
            </Array>
          </mxGeometry>
        </mxCell>
        <mxCell id="YD6msoa2M3r7hMomgX2S-25" value="" style="endArrow=none;html=1;rounded=0;entryX=0;entryY=0.346;entryDx=0;entryDy=0;entryPerimeter=0;exitX=1;exitY=0;exitDx=0;exitDy=0;" parent="1" source="1crDwZA3xUfXSPAo53d7-10" target="YD6msoa2M3r7hMomgX2S-1" edge="1">
          <mxGeometry width="50" height="50" relative="1" as="geometry">
            <mxPoint x="295.9099025766982" y="154.5900974233018" as="sourcePoint" />
            <mxPoint x="371" y="145" as="targetPoint" />
            <Array as="points" />
          </mxGeometry>
        </mxCell>
        <mxCell id="YD6msoa2M3r7hMomgX2S-30" value="" style="endArrow=none;html=1;rounded=0;exitX=1;exitY=0.25;exitDx=0;exitDy=0;entryX=0;entryY=0.5;entryDx=0;entryDy=0;" parent="1" source="YD6msoa2M3r7hMomgX2S-2" target="1crDwZA3xUfXSPAo53d7-4" edge="1">
          <mxGeometry width="50" height="50" relative="1" as="geometry">
            <mxPoint x="980" y="210" as="sourcePoint" />
            <mxPoint x="998" y="145" as="targetPoint" />
            <Array as="points" />
          </mxGeometry>
        </mxCell>
        <mxCell id="YD6msoa2M3r7hMomgX2S-37" value="" style="endArrow=none;html=1;rounded=0;exitX=1.001;exitY=0.449;exitDx=0;exitDy=0;exitPerimeter=0;entryX=0;entryY=0.5;entryDx=0;entryDy=0;" parent="1" source="YD6msoa2M3r7hMomgX2S-2" target="1crDwZA3xUfXSPAo53d7-3" edge="1">
          <mxGeometry width="50" height="50" relative="1" as="geometry">
            <mxPoint x="960" y="148" as="sourcePoint" />
            <mxPoint x="1025.5000000000002" y="181.5" as="targetPoint" />
            <Array as="points" />
          </mxGeometry>
        </mxCell>
        <mxCell id="YD6msoa2M3r7hMomgX2S-38" value="" style="endArrow=none;html=1;rounded=0;entryX=0;entryY=0;entryDx=0;entryDy=0;exitX=1;exitY=0.75;exitDx=0;exitDy=0;" parent="1" source="YD6msoa2M3r7hMomgX2S-2" target="1crDwZA3xUfXSPAo53d7-2" edge="1">
          <mxGeometry width="50" height="50" relative="1" as="geometry">
            <mxPoint x="951" y="173" as="sourcePoint" />
            <mxPoint x="1021.5900974233041" y="222.5900974233041" as="targetPoint" />
            <Array as="points">
              <mxPoint x="970" y="180" />
            </Array>
          </mxGeometry>
        </mxCell>
        <mxCell id="YD6msoa2M3r7hMomgX2S-39" value="" style="endArrow=none;html=1;rounded=0;exitX=1.002;exitY=0.93;exitDx=0;exitDy=0;entryX=0.5;entryY=0;entryDx=0;entryDy=0;exitPerimeter=0;" parent="1" source="YD6msoa2M3r7hMomgX2S-2" target="1crDwZA3xUfXSPAo53d7-1" edge="1">
          <mxGeometry width="50" height="50" relative="1" as="geometry">
            <mxPoint x="940" y="196" as="sourcePoint" />
            <mxPoint x="978.25" y="220" as="targetPoint" />
            <Array as="points">
              <mxPoint x="970" y="210" />
            </Array>
          </mxGeometry>
        </mxCell>
        <mxCell id="YD6msoa2M3r7hMomgX2S-45" value="" style="endArrow=none;html=1;rounded=0;exitX=1.002;exitY=0.115;exitDx=0;exitDy=0;entryX=0;entryY=1;entryDx=0;entryDy=0;exitPerimeter=0;" parent="1" source="YD6msoa2M3r7hMomgX2S-2" target="1crDwZA3xUfXSPAo53d7-5" edge="1">
          <mxGeometry width="50" height="50" relative="1" as="geometry">
            <mxPoint x="960" y="148" as="sourcePoint" />
            <mxPoint x="985" y="103" as="targetPoint" />
            <Array as="points" />
          </mxGeometry>
        </mxCell>
        <mxCell id="YD6msoa2M3r7hMomgX2S-48" value="" style="endArrow=none;html=1;rounded=0;exitX=1;exitY=0.5;exitDx=0;exitDy=0;entryX=0;entryY=0.25;entryDx=0;entryDy=0;" parent="1" source="1crDwZA3xUfXSPAo53d7-7" target="YD6msoa2M3r7hMomgX2S-1" edge="1">
          <mxGeometry width="50" height="50" relative="1" as="geometry">
            <mxPoint x="292.49999999999875" y="123" as="sourcePoint" />
            <mxPoint x="360" y="130" as="targetPoint" />
            <Array as="points" />
          </mxGeometry>
        </mxCell>
        <mxCell id="YD6msoa2M3r7hMomgX2S-49" value="(0, n)" style="text;html=1;align=center;verticalAlign=middle;whiteSpace=wrap;rounded=0;" parent="1" vertex="1">
          <mxGeometry x="500" y="118" width="60" height="30" as="geometry" />
        </mxCell>
        <mxCell id="YD6msoa2M3r7hMomgX2S-50" value="(1, 1)" style="text;html=1;align=center;verticalAlign=middle;whiteSpace=wrap;rounded=0;" parent="1" vertex="1">
          <mxGeometry x="750" y="118" width="60" height="30" as="geometry" />
        </mxCell>
        <mxCell id="EoohrdejDbw18MWcAkVu-11" value="" style="endArrow=none;html=1;rounded=0;strokeWidth=1.5;strokeColor=#00ff00;" parent="1" edge="1">
          <mxGeometry width="50" height="50" relative="1" as="geometry">
            <mxPoint x="311.25" y="126.49999999999999" as="sourcePoint" />
            <mxPoint x="321.25" y="126.49999999999999" as="targetPoint" />
          </mxGeometry>
        </mxCell>
        <mxCell id="EoohrdejDbw18MWcAkVu-15" style="edgeStyle=orthogonalEdgeStyle;rounded=0;orthogonalLoop=1;jettySize=auto;html=1;exitX=0.5;exitY=1;exitDx=0;exitDy=0;" parent="1" edge="1">
          <mxGeometry relative="1" as="geometry">
            <mxPoint x="280" y="193" as="sourcePoint" />
            <mxPoint x="280" y="193" as="targetPoint" />
          </mxGeometry>
        </mxCell>
        <mxCell id="EoohrdejDbw18MWcAkVu-16" value="" style="endArrow=none;html=1;rounded=0;strokeWidth=1.5;strokeColor=#00ff00;" parent="1" edge="1">
          <mxGeometry width="50" height="50" relative="1" as="geometry">
            <mxPoint x="310" y="211.58" as="sourcePoint" />
            <mxPoint x="320" y="211.58" as="targetPoint" />
          </mxGeometry>
        </mxCell>
        <mxCell id="EoohrdejDbw18MWcAkVu-17" value="" style="endArrow=none;html=1;rounded=0;entryX=-0.004;entryY=0.596;entryDx=0;entryDy=0;entryPerimeter=0;exitX=1;exitY=0;exitDx=0;exitDy=0;" parent="1" source="1crDwZA3xUfXSPAo53d7-9" target="YD6msoa2M3r7hMomgX2S-1" edge="1">
          <mxGeometry width="50" height="50" relative="1" as="geometry">
            <mxPoint x="294.14213562373095" y="215.85786437626905" as="sourcePoint" />
            <mxPoint x="330" y="150" as="targetPoint" />
          </mxGeometry>
        </mxCell>
        <mxCell id="EoohrdejDbw18MWcAkVu-23" value="" style="endArrow=none;html=1;rounded=0;strokeWidth=1.5;strokeColor=#00ff00;jumpSize=6;endSize=6;" parent="1" edge="1">
          <mxGeometry width="50" height="50" relative="1" as="geometry">
            <mxPoint x="970" y="122.83" as="sourcePoint" />
            <mxPoint x="980" y="122.83" as="targetPoint" />
          </mxGeometry>
        </mxCell>
        <mxCell id="1crDwZA3xUfXSPAo53d7-1" value="&lt;span style=&quot;text-wrap: nowrap;&quot;&gt;Due_D&lt;/span&gt;&lt;span style=&quot;text-wrap: nowrap; background-color: initial;&quot;&gt;ate&lt;/span&gt;" style="ellipse;whiteSpace=wrap;html=1;fillColor=none;" vertex="1" parent="1">
          <mxGeometry x="940" y="223.5" width="70" height="23.5" as="geometry" />
        </mxCell>
        <mxCell id="1crDwZA3xUfXSPAo53d7-2" value="&lt;span style=&quot;text-wrap: nowrap;&quot;&gt;Status&lt;/span&gt;" style="ellipse;whiteSpace=wrap;html=1;fillColor=none;" vertex="1" parent="1">
          <mxGeometry x="1010" y="200" width="50" height="23.5" as="geometry" />
        </mxCell>
        <mxCell id="1crDwZA3xUfXSPAo53d7-3" value="&lt;span style=&quot;text-wrap: nowrap;&quot;&gt;Description&lt;/span&gt;" style="ellipse;whiteSpace=wrap;html=1;fillColor=none;" vertex="1" parent="1">
          <mxGeometry x="1000" y="155.5" width="70" height="30" as="geometry" />
        </mxCell>
        <mxCell id="1crDwZA3xUfXSPAo53d7-4" value="&lt;span style=&quot;text-wrap: nowrap;&quot;&gt;Title&lt;/span&gt;" style="ellipse;whiteSpace=wrap;html=1;fillColor=none;" vertex="1" parent="1">
          <mxGeometry x="980" y="128" width="40" height="20" as="geometry" />
        </mxCell>
        <mxCell id="1crDwZA3xUfXSPAo53d7-5" value="ID" style="ellipse;whiteSpace=wrap;html=1;fillColor=none;" vertex="1" parent="1">
          <mxGeometry x="960" y="106.5" width="30" height="20" as="geometry" />
        </mxCell>
        <mxCell id="1crDwZA3xUfXSPAo53d7-7" value="ID" style="ellipse;whiteSpace=wrap;html=1;fillColor=none;verticalAlign=middle;fontSize=12;" vertex="1" parent="1">
          <mxGeometry x="299.69" y="106.5" width="33.12" height="22" as="geometry" />
        </mxCell>
        <mxCell id="1crDwZA3xUfXSPAo53d7-8" value="&lt;span style=&quot;text-wrap: nowrap;&quot;&gt;Password&lt;/span&gt;" style="ellipse;whiteSpace=wrap;html=1;fillColor=none;" vertex="1" parent="1">
          <mxGeometry x="310" y="230" width="60" height="40" as="geometry" />
        </mxCell>
        <mxCell id="1crDwZA3xUfXSPAo53d7-9" value="Email" style="ellipse;whiteSpace=wrap;html=1;fillColor=none;" vertex="1" parent="1">
          <mxGeometry x="292.5" y="185.5" width="47.5" height="30" as="geometry" />
        </mxCell>
        <mxCell id="1crDwZA3xUfXSPAo53d7-10" value="Name" style="ellipse;whiteSpace=wrap;html=1;fillColor=none;" vertex="1" parent="1">
          <mxGeometry x="297.5" y="140.75" width="42.5" height="29.25" as="geometry" />
        </mxCell>
      </root>
    </mxGraphModel>
  </diagram>
</mxfile>
